<?xml version="1.0" encoding="utf-8"?>
<!-- Generator: Adobe Illustrator 13.0.0, SVG Export Plug-In . SVG Version: 6.00 Build 14948)  -->
<!DOCTYPE svg PUBLIC "-//W3C//DTD SVG 1.1//EN" "http://www.w3.org/Graphics/SVG/1.1/DTD/svg11.dtd">
<svg version="1.1" id="Layer_1" xmlns="http://www.w3.org/2000/svg" xmlns:xlink="http://www.w3.org/1999/xlink" x="0px" y="0px"
	 width="238.74px" height="60.84px" viewBox="0 0 238.74 60.84" enable-background="new 0 0 238.74 60.84" xml:space="preserve">
<title>logo_reshape</title>
<polygon fill="#FAC03A" points="14.63,48.78 14.63,60.84 19.79,54.26 14.83,48.78 "/>
<polygon fill="#FAC03A" points="0,19.91 0.23,19.83 0,19.83 "/>
<path fill="#FAC03A" d="M25.13,31.721c-1.151-0.736-2.506-1.087-3.87-1h-6.63v7.85h6.62c1.378,0.072,2.74-0.318,3.87-1.11
	c0.925-0.688,1.456-1.786,1.42-2.94C26.579,33.407,26.047,32.352,25.13,31.721z"/>
<path fill="#FAC03A" d="M67.58,18.09c-0.779,0.611-1.668,1.066-2.62,1.34c-1.127,0.328-2.296,0.486-3.47,0.47
	c-1.042,0.002-2.081-0.129-3.09-0.39c-0.986-0.25-1.916-0.684-2.74-1.28c-1.648-1.199-2.625-3.112-2.63-5.15v-0.51h5.41V13
	c0.018,0.309,0.096,0.611,0.23,0.89c0.147,0.299,0.368,0.557,0.64,0.75c0.304,0.208,0.643,0.36,1,0.45
	c0.432,0.108,0.875,0.162,1.32,0.16c0.9,0,2.43-0.15,2.65-1.16c0.08-0.453-0.107-0.911-0.48-1.18c-0.65-0.412-1.379-0.684-2.14-0.8
	h-0.11c-0.61-0.14-1.26-0.31-2-0.52c-0.678-0.175-1.346-0.389-2-0.64c-0.683-0.258-1.326-0.611-1.91-1.05
	c-1.303-0.992-2.048-2.552-2-4.19c-0.043-1.007,0.192-2.007,0.68-2.89c0.449-0.754,1.056-1.403,1.78-1.9
	c0.546-0.384,1.142-0.693,1.77-0.92L0.23,19.82h24.6c4.807,0,8.68,1.307,11.62,3.92c2.931,2.608,4.545,6.389,4.4,10.31
	c0.063,2.985-0.842,5.912-2.58,8.341c-1.807,2.431-4.333,4.232-7.22,5.149l12.19,13.28l25.68-44.25
	C68.564,17.15,68.111,17.665,67.58,18.09z"/>
<path fill="#FAC03A" d="M63.74,5.65c-0.039-0.197-0.103-0.389-0.19-0.57c-0.121-0.224-0.296-0.413-0.51-0.55
	c-0.255-0.155-0.537-0.264-0.83-0.32c-0.392-0.079-0.791-0.116-1.19-0.11c-0.272,0.002-0.543,0.029-0.81,0.08
	c-0.415,0.086-0.776,0.339-1,0.7c-0.117,0.25-0.117,0.54,0,0.79c0.19,0.48,0.77,0.64,1.63,0.85l0.37,0.1l2.74,0.7
	c0.32,0.06,0.82,0.19,1.43,0.37c0.406,0.123,0.801,0.28,1.18,0.47l2.75-2.23h-5.57V5.65z"/>
<path fill="#FAC03A" d="M102.84,28.34c0.075-2.232-0.729-4.405-2.24-6.05c-1.494-1.593-3.87-2.39-7.13-2.39H82.9v23.43h4.84v-6h4.45
	c0.306,0.022,0.614,0.022,0.92,0l4.63,6h5.81l-5.57-7C101.21,34.98,102.84,32.29,102.84,28.34z M92.04,33.391h-4.3V24.01h4.92
	c3.53,0,5.06,2,5.06,4.69C97.74,31.59,95.8,33.391,92.04,33.391z"/>
<path fill="#FAC03A" d="M115.5,24.94c-5.04-0.172-9.265,3.773-9.437,8.812c-0.006,0.176-0.007,0.352-0.003,0.528
	c-0.052,2.48,0.917,4.874,2.68,6.62c1.794,1.796,4.252,2.77,6.79,2.689c3.201,0.121,6.276-1.254,8.321-3.72l-3-2.46
	c-1.158,1.433-2.909,2.255-4.75,2.23c-2.494,0.127-4.717-1.563-5.26-4h13.65c0-0.17,0-0.761,0-1c0.108-2.539-0.753-5.024-2.41-6.951
	C120.411,25.831,117.995,24.821,115.5,24.94z M110.81,32.65c0.38-2.298,2.361-3.988,4.69-4c3,0,4.28,1.66,4.45,4H110.81z"/>
<path fill="#FAC03A" d="M144.95,31.93c-1.994-1.24-4.207-2.085-6.52-2.49c-3.841-0.83-5.301-1.56-5.301-3.16
	c0-1.6,1.391-2.53,3.801-2.53c2.511,0.042,4.99,0.572,7.299,1.56l2-3.79c-2.895-1.253-6.016-1.9-9.17-1.9
	c-2.316-0.102-4.597,0.605-6.449,2c-1.557,1.222-2.44,3.111-2.381,5.09c-0.068,2.406,1.393,4.592,3.641,5.45
	c1.682,0.75,3.448,1.297,5.26,1.63c3.7,0.83,5.09,1.601,5.09,3.09c0,1.729-1.56,2.66-4.18,2.66c-1.436,0.007-2.867-0.116-4.279-0.37
	c-1.414-0.309-2.783-0.789-4.08-1.43l-1.771,3.689c1.526,0.773,3.132,1.377,4.79,1.801c1.699,0.325,3.43,0.47,5.16,0.43
	c2.388,0.125,4.75-0.543,6.72-1.9c1.67-1.234,2.624-3.214,2.55-5.289C147.241,34.681,146.416,32.962,144.95,31.93z"/>
<path fill="#FAC03A" d="M161.11,24.94c-1.729-0.041-3.434,0.395-4.93,1.26v-7.94h-4.721v25.07h4.721V30.46
	c1.159-0.916,2.603-1.396,4.08-1.36c2.68,0,4,1.4,4,4.16v10.07h4.719V33.26C168.99,27.44,166.54,24.94,161.11,24.94z"/>
<path fill="#FAC03A" d="M187.67,26.41c-1.634-0.972-3.499-1.49-5.399-1.5c-2.518-0.099-4.951,0.91-6.66,2.76
	c-1.652,1.789-2.552,4.146-2.51,6.58c-0.027,2.43,0.87,4.777,2.51,6.57c1.709,1.85,4.143,2.858,6.66,2.76
	c1.918,0.014,3.798-0.543,5.399-1.6v1.33h4.72V25.28h-4.72V26.41z M187.67,37.91c-1.282,1.043-2.897,1.587-4.55,1.529
	c-1.469,0.059-2.896-0.495-3.939-1.529c-0.994-0.957-1.547-2.281-1.531-3.66c-0.006-1.357,0.53-2.66,1.49-3.62
	c1.061-1.047,2.512-1.602,4-1.53c1.654-0.041,3.27,0.513,4.551,1.56L187.67,37.91z"/>
<path fill="#FAC03A" d="M207.56,24.94c-1.881-0.011-3.732,0.471-5.369,1.4v-1.06h-4.721v23.87h4.721v-6.92
	c1.641,0.912,3.492,1.381,5.369,1.359c2.465,0.059,4.85-0.875,6.621-2.59c1.809-1.76,2.795-4.197,2.719-6.72
	c0.084-2.532-0.902-4.983-2.719-6.75C212.409,25.814,210.024,24.881,207.56,24.94z M210.649,38.01
	c-1.068,0.965-2.471,1.479-3.909,1.43c-1.646,0.071-3.257-0.475-4.521-1.529v-7.25c1.271-1.044,2.875-1.597,4.521-1.56
	c1.461-0.048,2.88,0.493,3.94,1.5c1.049,0.935,1.633,2.285,1.6,3.69C212.306,35.709,211.71,37.067,210.649,38.01z"/>
<path fill="#FAC03A" d="M238.74,34.59c0.108-2.539-0.753-5.023-2.41-6.95c-1.679-1.845-4.099-2.836-6.59-2.7
	c-5.04-0.172-9.265,3.773-9.438,8.812c-0.006,0.176-0.007,0.352-0.003,0.528c-0.06,2.476,0.898,4.868,2.65,6.62
	c1.792,1.801,4.25,2.777,6.79,2.699c3.201,0.123,6.276-1.252,8.319-3.72l-3-2.46c-1.156,1.434-2.908,2.256-4.75,2.23
	c-2.498,0.133-4.727-1.559-5.27-4h13.7C238.74,35.45,238.74,34.82,238.74,34.59z M225.09,32.66c0.376-2.3,2.359-3.992,4.69-4
	c3,0,4.279,1.66,4.449,4H225.09z"/>
</svg>
